<?xml version="1.0" encoding="iso-8859-1"?>
<!-- Uploaded to: SVG Repo, www.svgrepo.com, Generator: SVG Repo Mixer Tools -->
<!DOCTYPE svg PUBLIC "-//W3C//DTD SVG 1.1//EN" "http://www.w3.org/Graphics/SVG/1.1/DTD/svg11.dtd">
<svg fill="#000000" version="1.1" id="Capa_1" xmlns="http://www.w3.org/2000/svg" xmlns:xlink="http://www.w3.org/1999/xlink" 
	 width="800px" height="800px" viewBox="0 0 162.943 162.942"
	 xml:space="preserve">
<g>
	<g>
		<g>
			<path d="M22.345,141.682c-5.037,0-11.953-2.138-20.214-10.123c-1.39-1.344-1.427-3.56-0.084-4.949
				c1.345-1.389,3.559-1.426,4.949-0.084c11.6,11.216,17.93,8.724,19.816,7.045c36.993-44.021,70.03-90.477,70.36-90.941
				c0.781-1.1,2.122-1.657,3.452-1.423c1.328,0.229,2.406,1.202,2.771,2.5l7.812,27.76c0.523,1.86-0.56,3.794-2.42,4.317
				c-1.859,0.522-3.794-0.56-4.318-2.421l-5.846-20.771c-10.168,14.021-67.034,86.136-67.192,86.271
				C28.76,141.165,28.01,141.581,22.345,141.682z"/>
			<path d="M156.184,159.003c-31.317-24.509-35.764-44.539-35.938-45.38c-0.392-1.893,0.825-3.745,2.719-4.137
				c1.885-0.387,3.732,0.818,4.132,2.699c0.069,0.308,4.458,18.654,33.401,41.306c1.521,1.19,1.882,3.467,0.599,4.913
				C159.092,160.664,156.825,159.505,156.184,159.003z"/>
			<path d="M85.852,160.637c-0.233-0.82-6.937-19.854,1.481-37.037c4.929-10.06,13.921-17.283,26.729-21.47
				c22.119-7.231,17.174-27.988,16.731-29.668l-3.881-11.712c-1.016,6.808-3.357,13.973-8.056,20.287
				c-8.594,11.546-23.047,17.561-42.959,17.877c-1.953,0.033-3.524-1.512-3.556-3.443c-0.03-1.933,1.512-3.524,3.444-3.557
				c17.607-0.279,30.202-5.335,37.433-15.027c12.17-16.312,5.49-40.862,5.421-41.108c-0.513-1.83,0.528-3.737,2.348-4.293
				c1.817-0.553,3.747,0.438,4.345,2.245l12.139,36.626c0.02,0.058,0.036,0.115,0.054,0.174c2.727,9.933,1.785,30.71-21.288,38.254
				c-10.92,3.568-18.521,9.575-22.592,17.85c-7.132,14.49-1.259,31.479-1.197,31.649c0.645,1.819-0.308,3.821-2.125,4.469
				C89.932,162.891,86.717,163.664,85.852,160.637z"/>
		</g>
		<path d="M107.152,32.668c9.006,0,16.334-7.328,16.334-16.334S116.158,0,107.152,0c-9.008,0-16.334,7.328-16.334,16.334
			S98.144,32.668,107.152,32.668z M107.152,7.072c5.105,0,9.262,4.154,9.262,9.262c0,5.106-4.155,9.262-9.262,9.262
			c-5.107,0-9.263-4.155-9.263-9.262C97.889,11.226,102.043,7.072,107.152,7.072z"/>
	</g>
</g>
</svg>