<?xml version="1.0" encoding="iso-8859-1"?>
<!-- Uploaded to: SVG Repo, www.svgrepo.com, Generator: SVG Repo Mixer Tools -->
<!DOCTYPE svg PUBLIC "-//W3C//DTD SVG 1.1//EN" "http://www.w3.org/Graphics/SVG/1.1/DTD/svg11.dtd">
<svg fill="#000000" version="1.1" id="Capa_1" xmlns="http://www.w3.org/2000/svg" xmlns:xlink="http://www.w3.org/1999/xlink" 
	 width="800px" height="800px" viewBox="0 0 124.039 124.039"
	 xml:space="preserve">
<g>
	<path d="M64.63,84.139V44.94l35.482-22.433L64.63,0.075V0h-8.635v84.251c-23.072,1.024-45.564,7.896-45.564,19.825
		c0,12.965,26.579,19.963,51.587,19.963c25.01,0,51.59-6.998,51.59-19.963C113.609,91.561,88.843,84.607,64.63,84.139z
		 M64.63,100.111c7.967,0.625,12.312,2.881,12.932,3.966c-0.725,1.267-6.516,4.135-17.25,4.135c-10.734,0-16.524-2.868-17.25-4.135
		c0.622-1.085,4.965-3.341,12.932-3.966v3.966h8.634v-3.966H64.63z M62.019,118.159c-28.318,0-45.707-8.204-45.707-14.082
		c0-5.45,14.946-12.892,39.684-13.95v4.094c-9.728,0.709-18.848,3.858-18.848,9.856c0,6.883,12.007,10.017,23.165,10.017
		c11.156,0,23.165-3.134,23.165-10.017c0-5.998-9.12-9.147-18.848-9.856V90.02c26.773,0.483,43.099,8.36,43.099,14.059
		C107.728,109.955,90.337,118.159,62.019,118.159z"/>
</g>
</svg>