<?xml version="1.0" encoding="iso-8859-1"?>
<!-- Uploaded to: SVG Repo, www.svgrepo.com, Generator: SVG Repo Mixer Tools -->
<svg fill="#000000" height="800px" width="800px" version="1.1" id="Layer_1" xmlns="http://www.w3.org/2000/svg" xmlns:xlink="http://www.w3.org/1999/xlink" 
	 viewBox="0 0 512 512" xml:space="preserve">
<g>
	<g>
		<path d="M306.663,321.654c-5.192-0.279-10.115,3.75-10.471,9.183c-0.356,5.423,3.75,10.115,9.183,10.471
			c117.01,7.721,186.933,40.288,186.933,67.308c0,32.596-97.048,68.923-236.308,68.923c-139.26,0-236.308-36.327-236.308-68.923
			c0-27.375,74.259-61.058,194.24-67.76c5.433-0.298,9.586-4.942,9.279-10.375c-0.298-5.423-5.106-9.538-10.375-9.279
			C106.894,327.106,0,356.433,0,408.615c0,57.558,131.894,88.615,256,88.615c124.106,0,256-31.058,256-88.615
			C512,357.914,408.875,328.404,306.663,321.654z"/>
	</g>
</g>
<g>
	<g>
		<path d="M369.529,75.346L290.76,26.115c-4.615-2.904-10.692-1.49-13.568,3.125c-2.884,4.615-1.481,10.692,3.125,13.568
			l65.413,40.884l-65.413,40.885c-4.606,2.875-6.01,8.952-3.125,13.567c1.865,2.991,5.077,4.625,8.356,4.625
			c1.779,0,3.586-0.481,5.212-1.5l78.769-49.231c2.875-1.798,4.625-4.952,4.625-8.346S372.404,77.144,369.529,75.346z"/>
	</g>
</g>
<g>
	<g>
		<path d="M276.904,399.409h-12.149V24.615c0-5.442-4.404-9.846-9.846-9.846c-5.442,0-9.846,4.404-9.846,9.846v374.793h-8.755
			c-5.442,0-9.846,4.404-9.846,9.846c0,5.442,4.404,9.846,9.846,9.846h40.596c5.442,0,9.846-4.404,9.846-9.846
			C286.75,403.813,282.346,399.409,276.904,399.409z"/>
	</g>
</g>
</svg>